<svg width="396" height="396" viewBox="0 0 396 396" fill="none" xmlns="http://www.w3.org/2000/svg">
<rect width="396" height="396" fill="#2E323C"/>
<path d="M186.545 224.555H175.419L173.185 228.422L179.186 238.81L171.887 243L165.873 232.592H124.395L118.381 243L111.082 238.81L117.143 228.314L112.32 219.698L119.686 215.569L124.482 224.144H165.907L168.846 219.058V212.409H177.296V216.101H186.532V224.548L186.545 224.555Z" fill="#454B5A"/>
<path d="M173.098 202.493L171.847 201.247L173.098 199.994L174.342 201.247L173.098 202.493Z" fill="#454B5A"/>
<path d="M177.33 203.618V208.718H168.854V203.618L171.336 205.107L173.098 202.547L174.854 205.107L177.33 203.618Z" fill="#454B5A"/>
<path d="M120.185 172.826C120.185 169.76 121.207 167.207 123.252 165.173C125.29 163.145 127.847 162.128 130.914 162.128C132.051 162.128 133.168 162.296 134.284 162.64C135.394 162.977 136.289 163.361 136.962 163.792C137.641 164.223 138.294 164.715 138.926 165.254C139.552 165.806 139.955 166.19 140.123 166.406C140.298 166.628 140.433 166.81 140.54 166.945L146.722 160.518L146.117 159.757C145.734 159.231 145.101 158.605 144.22 157.871C143.339 157.136 142.31 156.409 141.132 155.674C139.955 154.94 138.462 154.307 136.645 153.788C134.836 153.263 132.919 153 130.907 153C125.082 153 120.138 154.947 116.081 158.841C112.025 162.741 110 167.403 110 172.826C110 178.248 112.025 182.917 116.081 186.811C120.138 190.711 125.089 192.658 130.907 192.658C132.932 192.658 134.883 192.388 136.76 191.863C138.637 191.324 140.144 190.731 141.287 190.064C142.431 189.404 143.494 188.636 144.476 187.781C145.458 186.918 146.09 186.319 146.359 185.975C146.628 185.625 146.837 185.356 146.978 185.147L141.092 178.72L139.969 179.919C139.222 180.741 137.998 181.556 136.309 182.358C134.614 183.159 132.818 183.564 130.914 183.564C127.84 183.564 125.29 182.533 123.252 180.498C121.207 178.457 120.185 175.897 120.185 172.826ZM158.932 172.826C158.932 169.76 159.934 167.207 161.939 165.173C163.95 163.145 166.432 162.128 169.399 162.128C172.366 162.128 174.848 163.145 176.853 165.173C178.844 167.207 179.846 169.76 179.846 172.826C179.846 175.891 178.844 178.451 176.853 180.498C174.848 182.533 172.366 183.564 169.399 183.564C166.432 183.564 163.95 182.533 161.939 180.498C159.928 178.457 158.932 175.897 158.932 172.826ZM190.286 172.826C190.286 167.403 188.261 162.748 184.205 158.841C180.149 154.947 175.211 153 169.392 153C163.574 153 158.629 154.947 154.573 158.841C150.516 162.741 148.492 167.403 148.492 172.826C148.492 178.248 150.516 182.917 154.573 186.811C158.629 190.711 163.567 192.658 169.392 192.658C175.218 192.658 180.149 190.711 184.205 186.811C188.261 182.917 190.286 178.255 190.286 172.826ZM195.009 191.587H205.193V179.791H210.561L216.992 191.587H227.702L219.932 177.932L220.638 177.541C221.055 177.326 221.573 176.942 222.199 176.369C222.831 175.803 223.457 175.116 224.083 174.308C224.715 173.493 225.253 172.442 225.697 171.141C226.134 169.848 226.356 168.447 226.356 166.945C226.356 163.3 225.071 160.249 222.495 157.776C219.919 155.311 216.656 154.078 212.694 154.078H194.995V191.594L195.009 191.587ZM216.192 166.938C216.192 168.009 215.815 168.898 215.068 169.619C214.315 170.333 213.34 170.69 212.156 170.69H205.2V163.206H212.156C213.34 163.206 214.315 163.563 215.068 164.27C215.822 164.978 216.192 165.867 216.192 166.945V166.938ZM250.641 192.665C252.652 192.665 254.589 192.395 256.473 191.87C258.356 191.331 259.904 190.738 261.108 190.071C262.312 189.411 263.442 188.643 264.485 187.787C265.527 186.925 266.22 186.326 266.55 185.982C266.879 185.632 267.122 185.362 267.256 185.153V170.69H251.172V177.13H257.058V181.159L256.432 181.738C255.995 182.169 255.242 182.587 254.179 182.978C253.109 183.375 251.939 183.57 250.641 183.57C247.566 183.57 245.01 182.54 242.972 180.505C240.927 178.464 239.911 175.904 239.911 172.832C239.911 169.76 240.927 167.214 242.972 165.18C245.01 163.152 247.566 162.135 250.641 162.135C251.777 162.135 252.894 162.303 254.011 162.647C255.121 162.984 256.009 163.368 256.688 163.799C257.368 164.23 258.02 164.722 258.652 165.26C259.278 165.813 259.682 166.197 259.85 166.412C260.031 166.635 260.166 166.817 260.267 166.951L266.449 160.525L265.844 159.763C265.46 159.238 264.828 158.612 263.947 157.877C263.065 157.143 262.036 156.415 260.852 155.681C259.675 154.947 258.182 154.314 256.372 153.795C254.556 153.269 252.645 153.007 250.634 153.007C244.808 153.007 239.864 154.954 235.808 158.847C231.751 162.748 229.726 167.409 229.726 172.832C229.726 178.255 231.751 182.924 235.808 186.817C239.864 190.718 244.815 192.665 250.634 192.665H250.641ZM273.553 191.587H283.737V154.071H273.553V191.587Z" fill="#454B5A"/>
<path d="M210.118 241.632C213.629 241.632 216.495 240.669 218.742 238.742C220.982 236.816 222.112 234.566 222.112 231.992C222.112 230.888 221.897 229.87 221.479 228.934C221.056 227.998 220.585 227.263 220.067 226.731C219.542 226.192 218.943 225.714 218.271 225.296C217.598 224.872 217.127 224.609 216.858 224.488C216.596 224.373 216.38 224.286 216.232 224.219L216.663 223.989C216.972 223.835 217.329 223.579 217.733 223.222C218.143 222.858 218.547 222.44 218.964 221.942C219.381 221.457 219.73 220.796 220.02 219.981C220.309 219.159 220.457 218.297 220.457 217.394C220.457 215.05 219.421 213.022 217.356 211.291C215.284 209.56 212.566 208.698 209.176 208.698H194.356V241.619H210.118V241.632ZM256.446 208.711V216.721H265.608V241.632H274.548V216.721H283.738V208.711H256.446ZM234.974 234.101V228.476H247.674V221.409H234.974V216.242H251.448V208.711H226.04V241.632H251.906V234.101H234.974ZM203.296 234.586V227.991H209.405C210.447 227.991 211.302 228.308 211.961 228.934C212.62 229.561 212.95 230.349 212.95 231.285C212.95 232.222 212.62 233.01 211.961 233.636C211.302 234.269 210.447 234.586 209.405 234.586H203.296ZM208.234 215.778C209.169 215.778 209.909 216.034 210.461 216.546C211.006 217.064 211.288 217.745 211.288 218.594C211.288 219.442 211.006 220.123 210.461 220.635C209.909 221.147 209.169 221.403 208.234 221.403H203.296V215.778H208.234Z" fill="#454B5A"/>
</svg>
