<svg width="24" height="16" viewBox="0 0 24 16" fill="none" xmlns="http://www.w3.org/2000/svg">
<path d="M15.3298 7.45658C15.0095 7.1932 14.6227 7.06449 14.1756 7.06449C13.7346 7.06449 13.3478 7.19342 13.0272 7.45658C12.7069 7.71421 12.544 8.07284 12.544 8.53225C12.544 8.99164 12.7069 9.35007 13.0272 9.61342C13.3476 9.87108 13.7346 10 14.1756 10C14.6227 10 15.0095 9.87108 15.3298 9.61342C15.6564 9.35007 15.8192 8.99164 15.8192 8.53224C15.8192 8.07283 15.6561 7.71422 15.3298 7.45658ZM13.5715 9.12037C13.4026 8.96921 13.3175 8.77296 13.3175 8.53225C13.3175 8.29133 13.4019 8.09529 13.5715 7.94963C13.7405 7.79847 13.9403 7.72563 14.1753 7.72563C14.4107 7.72563 14.6164 7.79847 14.7856 7.94963C14.9604 8.09529 15.0455 8.29133 15.0455 8.53225C15.0455 8.77317 14.9611 8.96921 14.7855 9.12037C14.6166 9.266 14.4109 9.33884 14.1753 9.33884C13.9403 9.33884 13.741 9.26601 13.5715 9.12037ZM16.9618 9.92138V6.07723H16.2005V9.92138H16.9618ZM19.4195 7.14277V8.67658C19.4195 9.04621 19.204 9.29116 18.7937 9.29116C18.3767 9.29116 18.1669 9.04641 18.1669 8.67658V7.14277H17.4042V8.79428C17.4042 9.43406 17.8392 9.99973 18.7937 9.99973H18.7996C19.7483 9.99973 20.1826 9.42157 20.1826 8.79428V7.14277H19.4195ZM11.7335 7.14277L10.9722 9.02504L10.2108 7.14277H9.40106L10.616 9.92141H11.3292L12.5439 7.14277H11.7335ZM9.40498 8.4537C9.40498 8.0504 9.26613 7.71993 8.99411 7.45658C8.72204 7.1932 8.37203 7.06449 7.94288 7.06449C7.50189 7.06449 7.127 7.20464 6.81871 7.47901C6.51636 7.7536 6.36564 8.10079 6.36564 8.53225C6.36564 8.9637 6.51658 9.31662 6.81279 9.59099C7.11516 9.86557 7.47771 10 7.90662 10C8.56562 10 9.03079 9.73114 9.31423 9.18769L8.74644 8.88516C8.55947 9.22686 8.28721 9.39493 7.91872 9.39493C7.46563 9.39493 7.14526 9.12609 7.0969 8.70034H9.40478V8.4537H9.40498ZM7.91826 7.60222C8.34719 7.60222 8.63152 7.82621 8.7038 8.18484H7.09646C7.2116 7.85437 7.52539 7.60222 7.91826 7.60222ZM6.36566 9.92142L5.3441 8.26335C5.99032 8.04487 6.3107 7.66401 6.3107 7.10933C6.31139 6.43145 5.73083 6 4.80643 6H3V9.92142H3.79764V8.33046H4.47464L5.45332 9.92142H6.36566ZM4.80643 6.64972C5.27776 6.64972 5.51355 6.82332 5.51355 7.16502C5.51355 7.50671 5.27754 7.68031 4.80643 7.68031H3.79764V6.64972H4.80643ZM21.4734 9.99976C20.9833 9.99976 20.5859 9.63117 20.5859 9.17621V6.3921H21.3472V7.14385H22V7.71524H21.3472V9.13092C21.3472 9.2643 21.4637 9.37225 21.6078 9.37225H22V9.99976H21.4734Z" fill="#0A64EA"/>
</svg>
