<svg xmlns="http://www.w3.org/2000/svg" viewBox="0 0 24 24" fill="none" class="loadable-icon m-icon loaded"><g><path xmlns="http://www.w3.org/2000/svg" d="M21.995 13c0-5.51-4.49-10-10-10s-10 4.49-10 10c0 1.52.33 2.97.98 4.33.06.14.13.28.2.41l.86 1.48a3.55 3.55 0 0 0 3.07 1.77 3.535 3.535 0 0 0 3.41-2.62c.25-.91.12-1.87-.35-2.68l-.86-1.48a3.533 3.533 0 0 0-4.83-1.29q-.255.15-.48.33v-.24c0-4.41 3.59-8 8-8s8 3.59 8 8v.24q-.225-.18-.48-.33c-1.69-.97-3.86-.39-4.83 1.29l-.86 1.48c-.47.82-.6 1.77-.35 2.68s.83 1.68 1.65 2.15c.54.31 1.15.48 1.76.48.31 0 .62-.04.92-.12a3.5 3.5 0 0 0 2.15-1.65l.86-1.48q.12-.21.21-.42c.65-1.35.98-2.81.98-4.32zm-16.52 1.64c.24-.14.51-.21.77-.21.53 0 1.05.28 1.33.77l.86 1.48c.42.73.17 1.68-.56 2.1s-1.68.17-2.1-.56l-.86-1.48c-.42-.73-.17-1.68.56-2.1m13.6 2.1-.86 1.48a1.536 1.536 0 1 1-2.66-1.54l.86-1.48c.28-.49.8-.77 1.33-.77.26 0 .52.07.77.21.73.42.99 1.37.56 2.1" fill="currentColor"></path></g></svg>