<svg xmlns="http://www.w3.org/2000/svg" viewBox="0 0 24 24" fill="none" class="loadable-icon m-icon loaded"><g><path xmlns="http://www.w3.org/2000/svg" d="M20.66 7C17.9 2.22 11.78.58 7 3.34S.58 12.22 3.34 17s8.88 6.42 13.66 3.66S23.42 11.78 20.66 7M4.85 11.05a.997.997 0 1 1 .54-1.92c1.57.44 3.2.23 4.61-.58a5.93 5.93 0 0 0 2.81-3.7c.14-.53.68-.86 1.22-.72.53.14.86.68.72 1.22A7.96 7.96 0 0 1 11 10.29c-1.23.71-2.6 1.08-3.99 1.08-.72 0-1.45-.1-2.16-.3zm15 3.14c-.15.53-.7.84-1.23.69a5.94 5.94 0 0 0-4.61.58 5.93 5.93 0 0 0-2.81 3.7 1.003 1.003 0 0 1-1.94-.5c.54-2.1 1.87-3.85 3.75-4.94a7.97 7.97 0 0 1 6.15-.78c.53.15.84.7.69 1.23z" fill="currentColor"></path></g></svg>