<svg xmlns="http://www.w3.org/2000/svg" viewBox="0 0 24 24" fill="none" class="loadable-icon m-icon loaded"><g><path xmlns="http://www.w3.org/2000/svg" d="M15.98 14h-1.13l-.77-4.6C15.23 8.7 16 7.44 16 6c0-2.21-1.79-4-4-4S8 3.79 8 6c0 1.44.77 2.7 1.92 3.4L9.15 14H8.02C5.25 14 3 16.25 3 19.02 3 20.66 4.34 22 5.98 22h12.04c1.64 0 2.98-1.34 2.98-2.98 0-2.77-2.25-5.02-5.02-5.02m-4.13-4.02c.05 0 .1.02.15.02s.1-.01.15-.02l.67 4.02h-1.64zM14 19h-4c-.55 0-1-.45-1-1s.45-1 1-1h4c.55 0 1 .45 1 1s-.45 1-1 1" fill="currentColor"></path></g></svg>