<svg xmlns="http://www.w3.org/2000/svg" viewBox="0 0 24 24" fill="none" class="loadable-icon m-icon loaded m-game-heart m-game-card__favorite"><g><path xmlns="http://www.w3.org/2000/svg" d="M12 21a.9.9 0 0 1-.33-.06C11.28 20.8 2 17.4 2 8.8 2 5.6 4.47 3 7.5 3c1.86 0 3.5.98 4.5 2.47C13 3.98 14.64 3 16.5 3 19.53 3 22 5.6 22 8.8c0 8.61-9.27 12-9.67 12.14A1 1 0 0 1 12 21M7.5 5C5.57 5 4 6.7 4 8.8c0 6.35 6.44 9.46 8 10.12 1.56-.66 8-3.78 8-10.12C20 6.7 18.43 5 16.5 5S13 6.7 13 8.8c0 .55-.45 1-1 1s-1-.45-1-1C11 6.7 9.43 5 7.5 5m.63 7.84c.46-.3.6-.92.3-1.38-.55-.84-.82-1.74-.82-2.66 0-.55-.45-1-1-1s-1 .45-1 1c0 1.31.38 2.57 1.14 3.74.19.3.51.46.84.46.19 0 .37-.05.54-.16" fill="currentColor"></path></g></svg>