<svg xmlns="http://www.w3.org/2000/svg" viewBox="0 0 24 24" fill="none" class="loadable-icon m-icon loaded"><g><path xmlns="http://www.w3.org/2000/svg" d="M22 13c0-5.51-4.49-10-10-10S2 7.49 2 13c0 1.52.33 2.97.98 4.33q.09.21.21.42l.86 1.48A3.54 3.54 0 0 0 7.12 21c.61 0 1.22-.16 1.76-.48a3.533 3.533 0 0 0 1.29-4.83l-.86-1.48a3.533 3.533 0 0 0-4.83-1.29q-.255.15-.48.33v-.24c0-4.41 3.59-8 8-8s8 3.59 8 8v.24q-.225-.18-.48-.33c-1.69-.97-3.86-.39-4.83 1.29l-.86 1.48c-.97 1.69-.39 3.86 1.29 4.83.54.31 1.15.48 1.76.48.31 0 .62-.04.92-.12a3.5 3.5 0 0 0 2.15-1.65l.86-1.48q.12-.21.21-.42c.65-1.35.98-2.81.98-4.32z" fill="currentColor"></path></g></svg>