<svg xmlns="http://www.w3.org/2000/svg" viewBox="0 0 24 24" fill="none" class="loadable-icon m-icon loaded"><g><path xmlns="http://www.w3.org/2000/svg" d="m20.632 6.175-6.09-1.63-.36-1.35a2.96 2.96 0 0 0-3.62-2.09l-7.27 1.95c-.76.2-1.4.69-1.79 1.38-.41.67-.51 1.47-.31 2.23l2.94 10.98c.2.76.69 1.4 1.38 1.79.46.26.96.4 1.47.4.13 0 .26 0 .39-.03.4.56.99.99 1.7 1.18l7.07 1.9c.27.07.53.11.8.11 1.36 0 2.61-.91 2.97-2.28l2.89-10.77c.44-1.64-.54-3.33-2.18-3.77zm-15.09 4.02c-.25-.92.3-1.86 1.21-2.1.92-.25 1.86.3 2.1 1.21-.25-.92.3-1.86 1.21-2.1.92-.25 1.86.3 2.1 1.21.49 1.84-2.28 4.76-2.28 4.76s-3.86-1.14-4.35-2.98zm15.33-.77-2.89 10.77c-.15.57-.75.92-1.32.76l-6.74-1.8 5.1-1.37a2.965 2.965 0 0 0 2.09-3.62l-1.98-7.4 4.98 1.33c.57.15.92.75.76 1.32z" fill="currentColor"></path></g></svg>